<?xml version="1.0" standalone="no"?>
<!DOCTYPE svg PUBLIC "-//W3C//DTD SVG 20010904//EN"
 "http://www.w3.org/TR/2001/REC-SVG-20010904/DTD/svg10.dtd">
<svg version="1.0" xmlns="http://www.w3.org/2000/svg"
 width="512.000000pt" height="512.000000pt" viewBox="0 0 512.000000 512.000000"
 preserveAspectRatio="xMidYMid meet">
<metadata>
Created by potrace 1.14, written by Peter Selinger 2001-2017
</metadata>
<g transform="translate(0.000000,512.000000) scale(0.100000,-0.100000)"
fill="#000000" stroke="none">
<path d="M1288 4835 c-2 -1 -28 -5 -58 -8 -230 -25 -507 -145 -700 -306 -156
-129 -275 -278 -364 -457 -47 -94 -100 -240 -116 -321 -5 -26 -12 -59 -14 -72
-24 -113 -24 -349 0 -466 3 -11 11 -56 20 -100 21 -115 42 -197 76 -305 29
-92 98 -272 117 -308 6 -9 28 -53 49 -97 184 -374 453 -745 791 -1090 177
-181 415 -396 515 -464 12 -8 23 -18 26 -21 16 -21 329 -239 395 -276 11 -6
63 -35 115 -65 113 -65 237 -127 343 -169 l77 -31 76 31 c296 118 657 343 979
609 276 229 555 515 765 784 44 56 84 107 88 112 5 6 17 24 28 40 10 17 22 32
25 35 4 3 49 70 100 150 211 330 371 697 425 975 2 11 8 43 14 70 5 28 12 61
14 75 3 14 7 36 11 50 6 31 19 192 18 245 -2 239 -80 509 -205 715 -99 162
-259 327 -424 438 -59 40 -238 132 -279 144 -249 75 -276 79 -465 83 -157 3
-254 -7 -378 -39 -296 -77 -562 -251 -752 -491 -18 -22 -35 -40 -39 -40 -4 0
-34 32 -66 70 -231 272 -527 438 -875 490 -72 11 -322 18 -332 10z"/>
</g>
</svg>
